<?xml version="1.0" encoding="UTF-8"?>
<svg version="1.1" viewBox="0 0 2000 2000" width="500" height="500" xmlns="http://www.w3.org/2000/svg">
<path transform="translate(563,385)" d="m0 0h905l18 2 15 5 14 8 11 9 7 8 9 14 6 13 2 9 1 10v953l-3 15-8 16-7 11-13 13-14 9-16 6-20 3-18 1h-868l-26-1-19-3-16-7-13-9-8-8-9-12-7-14-4-12-1-7-1-18 1-939 3-15 8-18 7-11 8-9 12-9 16-8 17-4zm9 61-11 2-8 6-7 8-3 6-1 6v914l2 13 8 10 12 6h898l10-2 9-5 6-9 2-6 1-31v-888l-3-10-6-8-7-7-5-3-4-1-25-1z" fill="#394857"/>
<path transform="translate(1263,653)" d="m0 0h69l6 3 4 7 1 68v33h84l7 6 3 6 1 20v226l-3 7-7 6-5 1h-816l-6-2-5-5-2-5-1-11v-111l2-6 7-7 29-1 245-1 14-27 13-23 14-25 7-10 3-1 13 13 7 8 9 9 7 8 72 72 7 8 18 18v2h2v2h2l7 8 7 7 5 7 5 3-1-3v-49l1-179 4-6 6-3h45l22 1 6 4 4 5 1 72v49l-1 3 77-1 2-2 1-197 3-5zm120 173-8 5-4 8 2 10 6 7 6 2 8-1 6-4 3-4 1-3v-10l-5-7-7-3zm-65 102-8 4-5 7-1 3v9l5 9 6 5 2 1h11l7-4 4-5 2-5v-9l-3-7-8-7-3-1zm-646 2-9 3-6 5-5 10v13l5 10 8 7 8 3h8l8-3 8-7 3-5 1-5v-12l-3-8-5-6-8-4zm76 3-8 5-3 4-1 3v13l4 7 6 5 4 2 8-1 10-6 3-6 1-9-3-9-8-6-5-2z" fill="#394857"/>
<path transform="translate(703,669)" d="m0 0h28l12 2 15 6 13 8 13 11 7 7 9 13 8 16 5 13 2 12 7-1h12l12 3 13 7 9 10 6 12 2 7v12l-5 15-7 10-8 7-10 5-10 2h-238l-4-4-1-4v-75l3-4 3-1 15-1 3-9 5-16 10-18 9-12 14-14 14-9 11-5 14-4z" fill="#394857"/>
<path transform="translate(1120,491)" d="m0 0h13l17 3 15 6 15 10 11 11 10 15 6 15 3 14v19l-5 21-8 16-8 11-11 11-13 8-14 6-16 3h-22l-14-3-14-6-11-8-9-8-11-14-8-16-3-10-1-8v-21l3-15 5-12 7-12 7-9 10-10 13-8 12-5 14-3z" fill="#394857"/>
<path transform="translate(1246,1098)" d="m0 0h58l5 4 3 6 1 20v137l-1 85-4 7-5 4h-56l-6-5-2-4-1-19v-225l3-8z" fill="#3A4957"/>
<path transform="translate(609,1098)" d="m0 0h57l5 3 3 4 1 9v236l-3 5-5 5-5 1h-49l-6-3-5-8-1-14v-192l1-39 5-6z" fill="#3B4A58"/>
<path transform="translate(563,385)" d="m0 0h70v2l10 1 9 1 8-2 5 1 5-1v1l8 2 9 1 16 3 10 2h7l2 1v2h5l3-1v2l7 2 4 2h4v6l-5-1h-3l-3 3 2 4h-8l-6 4-5 2-2 2-6 1-4 3-6 1-9 2h-21l-27 2-14 2-5 3-8-1v-2l-19 2h-10l-10 2h-9v2l-4 3-8-1-1 2-7 1-2 4-3 1-1 13 2 5-1 666h-1l-1-575-4 1-3-3v-7l-3 1-1 5h2v2l-4 1v-3h-3v-9h-5l-1-2 1-4-4-3-1-7h-3l-3 13-6 3-3 4-7-2 2 1v2h-2v2h-4l-3 13-3 1-1-36v-73l3-15 8-18 7-11 8-9 12-9 16-8 17-4z" fill="#4E5E6C"/>
<path transform="translate(762,1158)" d="m0 0h32l6 3 5 6 1 4v169l-2 12-6 8-7 1h-50l-4-3v-2l-3-1-2-5v-183l3-5 6-3z" fill="#394857"/>
<path transform="translate(910,1157)" d="m0 0h8l8 2 6 5 1 17v119l-1 52-7 8-2 1h-55l-5-5-3-5v-184l4-6 4-2 11-1z" fill="#3A4958"/>
<path transform="translate(826,501)" d="m0 0h9l12 3 9 5 9 8 6 10 5 14v2l38-1 14 1 8 3 6 5 5 8 2 7v9l-4 10-5 6-6 4-3 1h-181l-8-4-8-9-3-8v-15l3-10 6-8 7-6 10-4 5-1h24l12-17 9-7 10-4z" fill="#3A4958"/>
<path transform="translate(1373,1188)" d="m0 0h57l5 5 2 4 1 26v123l-2 8-6 7-49 1-9-1-5-5-3-7v-147l1-8 5-5z" fill="#394857"/>
<path transform="translate(1133,1218)" d="m0 0h44l4 2 4 8v120l-3 9-5 4-50 1-9-2-5-7-1-9v-117l4-6 3-2z" fill="#394857"/>
<path transform="translate(1372,491)" d="m0 0h14l14 4 11 6 7 6 9 12 5 11 2 9v14l-3 12-7 13-7 8-11 8-15 5-5 1h-16l-12-3-12-6-11-10-8-13-3-8-1-6v-14l3-13 5-10 9-10 8-7 13-6zm-2 28-9 5-5 6-3 8v14l3 8 5 6 8 4 8 2 9-1 10-5 6-7 2-6v-16l-3-6-4-5-7-5-6-2z" fill="#3B4A59"/>
<path transform="translate(994,1262)" d="m0 0h55l5 2 4 4 1 5v74l-2 8-7 6h-56l-6-5-2-5-1-37v-36l2-9 4-6z" fill="#3A4958"/>
<path transform="translate(948,652)" d="m0 0h11l14 2 12 6 9 8 7 10 5 13 1 4v13l-4 14-6 11-9 10-11 7-15 4h-18l-11-3-10-6-10-10-8-14-3-9v-19l4-13 7-11 7-7 10-6 10-3zm3 27-9 3-7 6-3 7v15l5 9 6 5 3 1h15l7-3 7-8 2-6v-11l-3-8-8-7-6-2z" fill="#3B4A59"/>
<path transform="translate(1549,892)" d="m0 0h1l1 22v502l-3 15-8 16-7 11-13 13-14 9-16 6-20 3h-145l2-6 5-2v-2l9-2 10 1 6 3h6v5l4-2v-3l8-4h3l2 3 6-1 1-3 1 3 5-1v-2l6-2 2 2-1 1h6l1-1 9-1-1-8h7l8-3 16-2 11 1 4-2 9 1 1-1 8-1 3-2 5-1 2-4 4-1v3l2 1-1 4 7-1h3l11-1-1-5 4-1 3 1 3-3 1-2h2l2-5 4-7h2l2-5 4-6-1-8 3-7 3-1-1-5 2-12v-137l-1-2h2v-218z" fill="#2B3B48"/>
<path transform="translate(647,514)" d="m0 0 10 1 10 5 6 8 3 7 1 9-3 10-8 9-11 4h-12l-8-3-6-5-6-12v-13l5-10 9-7z" fill="#3E4C5B"/>
<path transform="translate(1484,1407)" d="m0 0 2 1v5l-8 4h-2l-6 2h-2l-1 2h-4l-10 1h-9l-4 1h-23l-3-1h-54l-6-1h-50l-25-1h-49l-3 1-1-1h-24l-3 1-9-1h-56l-6-1-1 2-1-1h-50l-4-1-1 2-9-1-10-1-1 2-1-1h-11l-4-2 18-1 409-1 10-2 9-5z" fill="#30404D"/>
<path transform="translate(1490,1143)" d="m0 0 1 2 3-1 1 1v7l1 5v16l-1 3h2v18l2 3v23l4 4v2h-2l1 2h4l1 9 1 11 1 6v6l3 1v5l2 3-3 3 1 3 5 4v3h4l1 3-3 1v6l-4 5h-1v5h-3l-3-5v-2h-2l1-17-1-9-2 1v9l-3 6h-1l-2-11 1-1-1-22-1-7v-7l1-3-1-3-3-3v-3h-2l-1 2v-6l2-1-2-1-1-15z" fill="#2A3A47"/>
<path transform="translate(1308,1104)" d="m0 0h2l2 4 1 20v137l-1 85-3 5-2-2 1-11v-74l-1-3v-47l1-11z" fill="#485662"/>
<path transform="translate(651,607)" d="m0 0 11 1 7 4 3 5v10l-4 7-5 5-3 1h-13l-6-4-3-4-1-3v-10l4-6 5-4z" fill="#FDFDFD"/>
<path transform="translate(839,637)" d="m0 0h12l6 3 5 7 1 5-2 8-5 6-9 4-9-1-7-6-3-5-1-5 3-9 7-6z" fill="#3D4C5B"/>
<path transform="translate(639,524)" d="m0 0 6 1 1 1h8l6 5v2h3v-2h4l-1 5-9 9-5 4-6 3-11 1-3 1-1 6-4-4-4-9v-3l5-2 3-8h2l-1-6 7-2z" fill="#4D5E6C"/>
<path transform="translate(1430,1028)" d="m0 0 3 1-2 4-3 2-5 1h-89l-99-1v-1l11-2v2l13-1v-1h7v2l4-2h3v2h12l1-2v2l6-2 4 1 1-1h5l1 1v-1h83l8-1h14l4-1 2 1h6l1-1z" fill="#2B3B48"/>
<path transform="translate(1434,1194)" d="m0 0 3 3 1 26v123l-2 7h-2l-1-10 1-6-1-1v-10l1-4v-104l-2-11v-11z" fill="#374653"/>
<path transform="translate(1549,557)" d="m0 0 2 4v234l-1 47h-1l-1-197z" fill="#2D3D4A"/>
<path transform="translate(1079,1480)" d="m0 0h7v5l-2 1v-2h-5l-4 1h-7l-4 1h-14l-7 1h-16v2h-99l-1-2 7-1h85l13-2 6 1 5-3 1 2h7l1-2h6l2-1h7l2 1z" fill="#2F3E4C"/>
<path transform="translate(1403,1320)" d="m0 0 5 2 1 3-1 2 3-1 1-2h3l1-2 4-2 1 2-2 10-5 3-2 4h-6l2 3-2 8-5-1-5 3-2-2-4-1-1 2-1-2 3-9 1-2h8l1-9h3v-3l-3-1z" fill="#2A3A47"/>
<path transform="translate(1053,1417)" d="m0 0 236 1v1l-10 1h-49l-3 1-1-1h-24l-3 1-9-1h-56l-6-1-1 2-1-1h-50l-4-1-1 2-9-1-10-1-1 2-1-1h-11l-4-2z" fill="#2A3A47"/>
<path transform="translate(733,1178)" d="m0 0h1l1 32v129l-1 13-2-2v-135z" fill="#2A3A47"/>
<path transform="translate(868,1485)" d="m0 0 4 1v1l-6 2h-80l4-2 37-1h39z" fill="#2F3F4C"/>
<path transform="translate(1383,1188)" d="m0 0h47l4 3-2 4-1-2-5-1h-25l-2 1v-2l-6 1-9-1-2-2z" fill="#2B3B48"/>
<path transform="translate(633,521)" d="m0 0 1 2h2l1 1 2-1 1 4-5 1h-3l1 6h-2l-2 8-3 2h-3v-10l4-8z" fill="#3D4C5B"/>
<path transform="translate(1215,860)" d="m0 0h37v2l-2 1-37 1-22-1-4-2z" fill="#2C3C49"/>
<path transform="translate(1079,1480)" d="m0 0h7v5l-2 1v-2h-5l-4 1h-7l-4 1h-14l-7 1h-7l4-4 4-1v2h7l1-2h6l2-1h7l2 1z" fill="#2A3A47"/>
<path transform="translate(497,421)" d="m0 0 1 4-4 9-2 9-3 7v2h-4l-1-7 8-18 3-5z" fill="#495765"/>
<path transform="translate(860,1186)" d="m0 0h2l1 4v26l-1 41h-1l-1-20z" fill="#2A3A47"/>
<path transform="translate(1245,1032)" d="m0 0 1 2 13-1v-1h7v2l4-2h3v2h12l1-2v2l6-2 4 1 1-1h5v2l3 1h-70v-1z" fill="#2A3A47"/>
<path transform="translate(732,1309)" d="m0 0 3 1v29l-1 13-2-2z" fill="#31404E"/>
<path transform="translate(1537,1203)" d="m0 0 2 4 3 1-1 4 2 1-2 3-1-2-2 9-3 1-1-4h2l1-3-4-8 1-5z" fill="#2A3A47"/>
<path transform="translate(1032,1484)" d="m0 0 4 2v1h-9v2h-29l6-3h15z" fill="#2D3D4B"/>
<path transform="translate(1426,1469)" d="m0 0 9 2h7l-1 3h-6l-4 2-11-1-1-3z" fill="#394857"/>
<path transform="translate(1146,1353)" d="m0 0h25v1l-18 2-15 1-7 2-3 2 2-5 1-1z" fill="#2A3A47"/>
<path transform="translate(1035,1354)" d="m0 0h8l-3 2-10 2-8 2h-8l-1 1h-6v-2l9-2 6-2h9z" fill="#2A3A47"/>
<path transform="translate(861,1311)" d="m0 0h2v33l-1 6h-1l-1-7v-19z" fill="#2A3A47"/>
<path transform="translate(824,1486)" d="m0 0m-6 0 6 1-3 2h-35l4-2z" fill="#2A3A47"/>
<path transform="translate(860,1186)" d="m0 0h2l1 4v22l-3 2z" fill="#2B3B49"/>
<path transform="translate(1310,928)" d="m0 0h6l-9 9-4 12h-1v-10l4-7z" fill="#2F3F4C"/>
<path transform="translate(1403,1357)" d="m0 0 7 1 5 1 3-2 5 1v3h-21v-3z" fill="#2A3A47"/>
<path transform="translate(1536,1268)" d="m0 0h4v2h3l-2 9-1 6-1 2-4-1 3-9-1-6z" fill="#2A3A47"/>
<path transform="translate(1492,1387)" d="m0 0 3 3h-2l3 9-2 3-5-3v-8l2-1z" fill="#2A3A47"/>
<path transform="translate(1117,1220)" d="m0 0 3 1-1 3-3 1 1 2h-2v12l-3 1v-13l4-6z" fill="#2D3D4A"/>
<path transform="translate(902,1486)" d="m0 0h8l4 1 12-1v2l-3 1h-23v-2z" fill="#2B3B48"/>
<path transform="translate(1290,1356)" d="m0 0 9 1 3 3h-22v-1z" fill="#2A3A47"/>
<path transform="translate(929,1486)" d="m0 0h19l-4 2-1 1h-15l-1-2z" fill="#2A3A47"/>
<path transform="translate(1e3 1486)" d="m0 0h11l1 3h-18l4-2z" fill="#2F3F4D"/>
<path transform="translate(1200,1469)" d="m0 0 3 1v4 2h-5v-3l-7 1 1-3z" fill="#2A3A47"/>
<path transform="translate(1277,1351)" d="m0 0h7v3l-9 1h-9l1-2 9-1z" fill="#2A3A47"/>
<path transform="translate(1498,1409)" d="m0 0h4v6l-5 1-3-3 1-2h3z" fill="#2A3A47"/>
<path transform="translate(637,517)" d="m0 0 2 1-1 3 3-1-1 3-4 2v-2h-2l-1-3zm-6 4 2 1-3 3-2-1z" fill="#616F7B"/>
<path transform="translate(1177,1219)" d="m0 0 4 1 3 5v3h-4l-3-6z" fill="#32414E"/>
<path transform="translate(1373,1188)" d="m0 0h10l1 5-13-2z" fill="#364653"/>
<path transform="translate(1167,1472)" d="m0 0 6 2 5 2v1l-9 1-1-3-3 1z" fill="#2A3A47"/>
<path transform="translate(1486,1461)" d="m0 0 3 2-8 8-2-1z" fill="#394857"/>
<path transform="translate(891,1355)" d="m0 0h9l-1 2-9 1-6 1 2-1v-2z" fill="#2A3A47"/>
<path transform="translate(1511,1309)" d="m0 0 3 1v5l-5 1 1-6z" fill="#2A3A47"/>
<path transform="translate(860,1186)" d="m0 0h2l1 4-2 12h-1z" fill="#30404E"/>
<path transform="translate(1540,1223)" d="m0 0h2l-2 7-4-1 1-5z" fill="#2A3A47"/>
<path transform="translate(862,1164)" d="m0 0h1v8l-2 4-1-1v-8z" fill="#2F3F4C"/>
</svg>
