<?xml version="1.0" encoding="UTF-8"?>
<svg version="1.1" viewBox="0 0 2000 2000" width="500" height="500" xmlns="http://www.w3.org/2000/svg">
<path transform="translate(986,427)" d="m0 0h48l21 4 26 8 18 8 20 11 16 11 11 9 10 9 6 5h163l16 2 20 5 18 8 17 10 13 10 13 12 9 11 9 12 9 15 7 15 6 18 2 13 1 13 1 53v639l-2 32-3 19-7 20-9 19-7 11-10 13-14 14-12 9-16 9-17 7-17 5-14 2h-680l-21-3-21-7-16-8-17-12-12-11-11-12-10-14-7-12-7-16-6-21-2-14-1-12-1-421v-74l1-201 1-20 3-19 7-21 8-17 9-14 10-13 17-17 18-13 17-10 21-8 23-5 11-1 203-1 5-4 7-8 8-8 13-10 15-10 16-9 16-7 25-7zm5 59-7 2 1 3 3 1 48 1v-4l-5-2-17-1zm-273 69-45 1-15 2-20 8-14 10-10 10-10 14-8 16-4 13-2 15-1 88v448l1 166 2 13 6 18 7 12 11 13 13 10 14 7 19 4 8 1h184l45-1 20-2 9-3 3-3-7-2-18-6-11-7-10-8-15-14-110-110-7-10-7-14-5-18v-24l5-19 5-12 8-11 11-12 16-17 15-15 8-7 32-32v-2h2l7-8 11-11 2-1v-2l4-2 10-10v-2l4-2v-2l4-2v-2h2v-2h2v-2h2l12-12 7-8 60-60 7-8 26-26 7-8 12-13 11-7 16-5 28-7 33-8 63-15 43-10 26-6 23-5 5 1 13 11 10 10 6 5 2 3h2l2 4 4 5 1 4-1 1v5l4 5 11 8 7 8 1 6-3 26-7 41-7 44-10 67-7 44-5 32-4 16-6 10-11 13-14 15-15 15-7 8-30 30v2l-3 1-7 8-33 33-7 8-12 12-7 8-8 7-7 8-52 52-8 7-5 7v3l4 1h114l1-36 1-18 2-9 7-13 9-10 10-7 10-4 10-2 13-1 40-1 19-1 4-1 1-66 1-20 3-12 6-14 9-13 11-12 31-31 3-2v-2l4-2 7-8 15-15 9-7 1-21v-299l-3-1-10 3-18 1h-25l-39-2-32-2-17-3-30-9-19-9-11-9-7-6-9-11-7-11-4-9-3-13-1-77-3-17-6-22-7-17-8-14-8-12-321-1zm497 0-5 1 2 4 12 9 6 6h2v2l8 7 15 15 7 8 39 39 7 8 7 7 7 8 26 26 8 7 10 9 7 9 2 1 26 1 1-1v-79l-2-15-5-16-9-16-12-13-9-8-11-7-15-7-11-3-30-2zm19 345-32 8-55 13-29 7-51 12-4 2 3 5 16 16 8 7 25 25 8 7 14 13 5 4h3l7-11 11-12 35-35v-2h2l7-8 14-15 11-12 6-8 4-13v-3zm-214 89-10 9-7 8-8 7-7 8-10 9v2l-4 2v2h-2l-6 7-8 7-4 4v2l-4 2-136 136-5 8-2 8v12l3 7 9 10 40 40 16 14 4-2 6-9 24-24 7-8 12-12 7-8 21-21v-2h2l7-8 96-96 7-8 13-13 4-5 12-9 2-3-58-58h-2l-2-4-8-7-7-7z" fill="#304E64"/>
<path transform="translate(986,427)" d="m0 0h48l21 4 26 8 18 8 20 11 16 11 11 9 10 9 6 5h163l16 2 20 5 18 8 17 10 13 10 13 12 9 11 9 12 9 15 7 15 6 18 2 13 1 13 1 53v639l-2 32-3 19-7 20-9 19-7 11-10 13-14 14-12 9-16 9-17 7-17 5-14 2h-15v-56l1-8 6-3 14-3 12-4 11-7 10-9 1-2h2l2-4 6-10 5-10 6-22 1-9v-225l1-21v-299l-12 3-18 1h-25l-39-2-32-2-17-3-30-9-19-9-11-9-8-7-9-11-7-11-4-9-3-13-1-77-3-17-6-22-7-17-8-14-7-11-321-1h-96l-45 1-15 2-20 8-14 10-9 9-10 14-8 16-4 13-2 15-1 88v448l1 166 2 13 6 18 7 12 10 12 13 10 14 7 19 4 7 1v63l-2 2h-9l-21-3-21-7-16-8-17-12-12-11-11-12-10-14-7-12-7-16-6-21-2-14-1-12-1-421v-74l1-201 1-20 3-19 7-21 8-17 9-14 10-13 17-17 18-13 17-10 21-8 23-5 11-1 203-1 5-4 7-8 8-8 13-10 15-10 16-9 16-7 25-7zm5 59-7 2 1 3 3 1 48 1v-4l-5-2-17-1zm224 69-5 1 2 4 12 9 6 6h2v2l8 7 15 15 7 8 39 39 7 8 7 7 7 8 26 26 8 7 10 9 7 9 2 1 26 1 1-1v-79l-2-15-5-16-9-16-12-13-9-8-11-7-15-7-11-3-30-2z" fill="#304E64"/>
<path transform="translate(1310,879)" d="m0 0 7 6 8 6 7 8 1 6-3 26-7 41-7 44-10 67-7 44-5 32-4 16-6 10-11 13-14 15-15 15-7 8-30 30-7 8-36 36-7 8-12 12-7 8-7 7h-2l-2 4-57 57-8 7-4 6-1 3 118 1v-36l1-18 2-9 7-13 9-10 9-7 12-5 10-2 13-1 40-1 23-1v-66l1-20 3-12 6-14 9-13 11-12 32-32 6-5 2-3h2l2-4 17-17 8-5 1 1v223l-2 12-6 21-7 14-6 8h-2l-2 4-9 8-13 8-13 4-14 3-2 1-1 8-1 55-22 1-633-1 1-64h185l45-1 20-2 9-3 4-2h13l26-7 15-9 12-11 5-5 7-6 5-6h2l2-4 42-42 6-5 7-8 64-64 8-7 7-8 6-5 16-16 7-8 10-9 14-14 7-8 15-14 5-6 6-5 7-8 16-15 6-8 6-18 6-40 4-23 5-29 3-17 4-27 8-48 4-23z" fill="#C3D9E6"/>
<path transform="translate(1098,1066)" d="m0 0 7 6 54 54 1 3-7 8-5 5-5 6-5 5h-2l-2 4-147 147-7 8-26 26-12 5h-10l-11-6-37-37-6-8 4-8 26-26 7-8 12-12 7-8 21-21 1-2h2l2-4 100-100 7-8 13-13 5-6 12-9z" fill="#C3D9E6"/>
<path transform="translate(694,1560)" d="m0 0h611l60 2 20 2 11 4 5 6v5l-5 4-6 2-48 4-68 4-51 2h-463l-74-3-70-5-14-2-8-3-3-3v-7l6-5 9-3 16-2z" fill="#C3D9E6"/>
<path transform="translate(986,638)" d="m0 0h18l16 4 15 8 12 11 8 10 7 16 3 16v12l-3 14-6 13-7 11-8 8-10 7-15 6-14 3h-18l-13-3-15-8-12-11-8-10-7-15-2-7v-28l3-13 5-11 6-9 9-9 13-8 17-6zm3 49-8 5-4 6-1 3v12l4 8 5 4 6 3 6 1 8-3 7-6 3-6v-14l-3-6-6-5-4-2z" fill="#304E64"/>
<path transform="translate(1212,560)" d="m0 0 7 4 10 9 3 2v2l4 2 20 20 7 8 39 39 7 8 7 7 7 8 25 25 8 7 11 10 5 7-1 2h-119l-7-3-6-4-7-9-2-13v-60l-2-17-7-28-6-15-3-8z" fill="#C3D9E6"/>
<path transform="translate(732,854)" d="m0 0h130l6 3 5 5 5 9 1 5v8l-3 9-7 8-8 4-6 1h-119l-8-2-6-4-5-6-3-7v-15l4-9 5-5z" fill="#C3D9E6"/>
<path transform="translate(1235,919)" d="m0 0h1v11l-4 20-3 17-8 41-5 26-4 24-5 19-3 1-11-9-7-8-14-14-8-7-16-16-2-3-3-2h2l2-5 8-11 42-42 1-2h2l2-4 8-8 7-8 14-15z" fill="#C3D9E6"/>
<path transform="translate(739,748)" d="m0 0h54l11 2 6 4 6 8 3 9v7l-4 10-4 5-9 5-5 1h-64l-9-3-7-8-3-9v-11l4-11 6-5 7-3z" fill="#C3D9E6"/>
<path transform="translate(748,960)" d="m0 0h27l25 1 9 4 6 7 3 6 1 10-3 10-6 8-5 3-10 2h-55l-13-2-6-4-6-9-1-3v-13l4-10 7-6 8-3z" fill="#C3D9E6"/>
<path transform="translate(737,645)" d="m0 0h61l10 3 6 7 4 8 1 4v7l-4 9-6 7-9 4-4 1h-60l-10-3-7-5-4-8-1-3v-13l4-10 8-6z" fill="#C3D9E6"/>
<path transform="translate(1241,787)" d="m0 0h157l3 1v7l-7 3-5 1-18 1h-25l-39-2-32-2-17-3-17-5z" fill="#C3D9E6"/>
</svg>
